PathFileType	4	(X/Y/Z)	C:/Users/beibeiliu/ov580/test_trc/User1\sequence.28_training_dense_left.trc
DataRate	CameraRate	NumFrames	NumMarkers	Units	OrigDataRate	OrigDataStartFrame	OrigNumFrames
120	120	14	19	mm	120	1	67
Frame#	Time	ThumbCMC			ThumbMCP			ThumbIP			ThumbTip			IndexMCP			IndexPIP			IndexTip			MiddleMCP			MiddlePIP			MiddleTip			RingMCP			RingPIP			RingTip			PinkyMCP			PinkyPIP			PinkyTip			BackHand1			BackHand2			BackHand3	
		X0	Y0	Z0	X1	Y1	Z1	X2	Y2	Z2	X3	Y3	Z3	X4	Y4	Z4	X5	Y5	Z5	X6	Y6	Z6	X7	Y7	Z7	X8	Y8	Z8	X9	Y9	Z9	X10	Y10	Z10	X11	Y11	Z11	X12	Y12	Z12	X13	Y13	Z13	X14	Y14	Z14	X15	Y15	Z15	X16	Y16	Z16	X17	Y17	Z17	X18	Y18	Z18	
0	0	-137.933	22.6349	106.563	-115.591	12.8216	81.1739	-102.69	9.53174	54.4278	-98.3709	-2.84022	26.9891	-164.864	34.9863	23.5071	-161.524	31.5287	-4.02895	-156.857	19.2444	-34.4755	-190.555	26.627	16.2552	-191.931	23.5617	-14.133	-190.204	12.4117	-44.1882	-204.472	8.26832	18.7272	-205.348	3.4609	-7.07685	-200.187	-9.6934	-31.4302	-219.032	-18.9028	36.5913	-220.382	-24.8731	18.2715	-217.051	-28.2318	-9.5452	-207.488	13.7479	77.07	-208.69	10.7894	115.956	-180.418	32.4783	95.8683	
1	0.00833333	-139.842	20.9649	104.656	-115.462	13.417	80.5639	-108.186	7.36453	54.9209	-99.1885	-3.95137	28.879	-165.59	33.8623	22.4115	-162.98	29.3779	-7.83242	-157.842	16.3991	-34.6581	-190.272	25.9811	13.8178	-191.119	23.4432	-11.5195	-190.209	11.487	-44.1147	-208.438	5.04393	20.8902	-204.284	2.64762	-7.21224	-199.207	-11.1569	-36.2901	-216.713	-17.7428	40.1904	-220.25	-27.1685	13.078	-219.33	-29.7968	-9.03807	-208.952	9.79604	80.4724	-209.027	11.4045	113.36	-179.789	31.3128	94.1452	
2	0.0166667	-139.856	20.3238	106.401	-116.913	12.2598	83.4647	-104.48	7.36329	52.1632	-99.0712	-3.72515	34.0617	-160.967	36.1603	18.7133	-162.708	29.3659	-5.61461	-155.012	20.0834	-31.0878	-191.72	24.8951	17.0632	-190.41	22.7059	-12.9107	-187.018	13.7349	-42.8116	-204.05	8.0865	22.6342	-203.528	0.962833	-11.5147	-199.551	-11.9136	-35.1502	-218.263	-18.1093	38.6386	-219.865	-26.9786	15.0651	-215.713	-30.5631	-8.85759	-209.853	10.2861	79.6568	-207.795	10.6716	112.557	-180.968	30.044	96.5537	
3	0.025	-137.268	23.0902	101.741	-117.773	12.4392	80.0733	-106.084	7.43997	53.9104	-97.3628	-2.99026	34.6616	-163.422	35.1697	19.3838	-159.662	32.3347	-9.38756	-159.696	17.5503	-30.0904	-189.475	26.5749	18.0403	-190.498	22.8642	-15.3044	-188.705	12.1478	-43.7082	-203.873	8.67042	19.6144	-204.501	1.18763	-10.5416	-198.984	-8.32728	-31.1627	-214.581	-15.0972	39.3304	-217.882	-22.7235	14.452	-217.695	-29.2208	-9.87428	-207.842	11.2517	76.4045	-211.253	9.67682	111.023	-179.939	32.085	93.4373	
4	0.0333333	-140.628	19.5803	104.808	-116.444	12.674	77.9166	-103.182	8.03023	54.673	-95.8555	-3.21524	31.1197	-161.097	36.9947	22.2265	-161.735	32.561	-4.92984	-157.01	21.1716	-30.8945	-188.675	28.7898	12.0973	-187.942	23.4583	-17.901	-187.39	14.0112	-42.8105	-207.139	5.31951	20.3824	-203.595	2.02587	-12.3957	-199.151	-11.9573	-35.1998	-218.804	-19.1781	37.3138	-217.05	-22.1492	15.5813	-217.862	-29.764	-10.3683	-209.108	12.263	76.9568	-206.466	13.5814	109.727	-179.555	30.6051	92.859	
5	0.0416667	-139.94	19.5106	101.44	-117.016	11.8121	79.4737	-105.925	7.01317	51.6657	-96.0081	-4.46003	30.4236	-159.635	35.9357	23.8666	-162.628	28.2739	-8.08784	-156.623	19.1762	-30.275	-190.778	24.2522	13.7675	-188.606	22.7657	-14.7632	-188.843	10.0386	-43.2195	-207.205	3.7777	20.7288	-205.464	-1.62974	-11.4491	-200.648	-13.3657	-31.938	-217.258	-17.9478	37.6047	-217.055	-22.9843	17.7664	-216.347	-32.248	-8.41541	-205.538	12.1025	80.8366	-207.664	10.1689	111.879	-176.269	30.8599	94.7694	
6	0.05	-137.101	20.9243	103.012	-113.824	12.1718	79.64	-105.508	4.72085	57.132	-97.3745	-4.67165	33.5901	-162.405	33.5544	20.0531	-158.917	30.921	-3.23919	-157.159	17.5429	-29.2935	-190.749	23.5326	14.3016	-187.592	22.7867	-11.524	-186.58	11.2294	-44.3232	-202.642	6.45301	23.7638	-204.026	-0.685797	-7.6287	-196.551	-12.3544	-34.8704	-217.753	-20.1327	38.8657	-217.401	-26.8051	13.9214	-215.57	-32.3225	-9.1484	-202.788	10.6577	81.9015	-208.215	9.13286	114.471	-179.245	30.401	97.1437	
7	0.0583333	-136.685	20.8917	108.526	-113.479	11.4444	83.5086	-101.506	7.14612	54.1532	-92.7747	-4.18354	33.6534	-160.804	35.1983	22.0567	-156.673	30.4317	-7.0438	-156.617	17.6085	-28.7126	-188.188	24.5887	15.1637	-187.128	21.7773	-11.5559	-181.89	12.1674	-45.9834	-201.893	6.97767	23.204	-204.745	-2.3379	-7.20265	-197.657	-13.2933	-30.2573	-217.076	-19.5499	36.9996	-215.952	-24.7678	17.8953	-212.884	-32.8609	-10.8806	-206.874	8.30598	82.4553	-207.46	9.44743	113.257	-176.649	33.1052	97.2387	
8	0.0666667	-136.233	19.5121	105.806	-114.008	10.2712	81.0474	-104.803	4.68527	56.4824	-95.8422	-5.75285	31.3222	-159.871	34.566	24.7387	-157.167	29.2318	-7.45166	-149.953	17.6678	-32.4595	-186.974	24.5171	18.8381	-188.382	19.1674	-14.6494	-183.328	10.5472	-42.9714	-202.831	5.19403	21.8535	-203.512	-1.92616	-6.72211	-193.325	-12.3979	-32.7006	-215.737	-20.1873	41.7767	-215.206	-24.966	19.0857	-213.62	-32.6014	-8.89884	-203.733	8.54527	80.9997	-206.905	6.98872	116.277	-176.5	29.0574	98.0995	
9	0.075	-137.87	17.7923	107.223	-109.94	10.5143	81.8474	-99.3378	5.54837	58.4543	-95.7461	-7.24105	35.879	-158.234	33.7188	23.2711	-159.16	27.7988	-3.00722	-153.26	15.6162	-30.0453	-185.539	24.6309	16.2697	-184.721	21.5472	-12.8523	-181.951	10.3671	-41.5742	-199.908	6.50649	20.534	-204.064	-2.46038	-5.44717	-194.061	-13.9409	-30.8708	-211.66	-18.0956	41.7924	-214.981	-27.63	16.6079	-211.351	-32.3172	-7.9177	-205.984	6.62596	81.4889	-206.882	7.76718	112.267	-175.601	29.137	98.7883	
10	0.0833333	-136.652	20.1246	105.107	-112.494	10.9387	82.2005	-101.577	5.09546	56.1281	-93.8155	-6.20095	32.2979	-160.39	31.7805	21.891	-156.718	28.617	-4.34901	-153.059	13.8965	-32.1369	-187.001	23.4975	14.3132	-185.268	20.2148	-11.9989	-185.132	7.77346	-41.5328	-204.667	1.68455	22.5632	-203.591	-2.53016	-6.05263	-193.943	-13.5969	-32.8569	-212.05	-18.6947	41.1873	-215.449	-26.8691	16.6514	-211.651	-32.8169	-7.53126	-206.183	6.58156	81.5752	-206.069	7.28829	110.955	-178.315	29.0033	97.22	
11	0.0916667	-139.355	16.8909	107.52	-110.142	11.1789	83.9112	-100.128	5.6547	57.5151	-96.5364	-6.33228	35.2756	-159.028	32.9742	21.5355	-156.244	28.3616	-6.48291	-154.12	16.1433	-28.6944	-186.738	23.4347	17.319	-187.587	19.222	-13.8636	-184.249	8.7535	-45.1965	-203.611	3.16493	24.4904	-201.075	0.0141971	-5.43392	-196.935	-12.8365	-29.6489	-212.555	-17.9257	35.8453	-214.27	-25.2497	18.7179	-213.786	-34.7432	-9.0118	-207.115	8.80585	79.8637	-208.845	7.29811	113.057	-174.788	29.2306	95.5204	
12	0.1	-139.823	18.7096	103.371	-115.226	8.79803	82.3617	-99.3549	4.66365	57.5163	-92.3438	-5.8577	34.2982	-158.229	33.3853	20.4094	-154.699	29.8407	-5.58155	-153.041	17.5805	-27.8552	-185.108	24.2932	15.2448	-186.53	18.9114	-15.1962	-185.415	9.32846	-41.4877	-204.883	2.27389	22.8058	-199.487	-0.482443	-8.63448	-195.187	-13.578	-31.127	-214.268	-20.7464	40.8537	-215.352	-26.8953	19.6562	-212.752	-33.4407	-10.1265	-202.146	9.29109	78.3762	-205.773	7.66868	115.281	-176.288	27.5341	97.701	
13	0.108333	-137.264	17.3335	107.448	-110.804	10.4273	81.673	-99.7497	5.47903	55.5743	-93.0325	-6.8688	33.0658	-161.214	31.0399	24.1208	-157.589	29.0972	-2.83699	-152.499	16.0993	-31.4543	-186.873	23.8336	13.989	-184.945	20.1313	-14.6049	-183.053	10.805	-41.011	-202.291	3.66605	20.701	-201.077	-1.42094	-4.89699	-194.345	-12.6675	-29.5276	-212.666	-18.6295	36.0771	-214.767	-29.2118	14.732	-211.578	-32.4131	-9.43164	-202.594	8.28185	78.5601	-206.356	9.23918	113.085	-177.15	29.1944	100.045	
